<svg width="512" height="512" viewBox="0 0 512 512" fill="none" xmlns="http://www.w3.org/2000/svg">
<rect width="512" height="512" rx="50" fill="url(#paint0_linear_1_187)"/>
<path d="M414.5 434H98.5C88.0239 434 77.977 429.833 70.5693 422.414C63.1616 414.996 59 404.935 59 394.444V117.556C59 107.065 63.1616 97.0037 70.5693 89.5856C77.977 82.1674 88.0239 78 98.5 78H414.5C424.976 78 435.023 82.1674 442.431 89.5856C449.838 97.0037 454 107.065 454 117.556V394.444C454 404.935 449.838 414.996 442.431 422.414C435.023 429.833 424.976 434 414.5 434ZM98.5 157.111V394.444H414.5V157.111H98.5ZM309.963 349.094L282.056 321.148L327.324 275.778L282.037 230.427L309.963 202.462L383.176 275.778L309.983 349.074L309.963 349.094V349.094ZM203.037 349.094L129.823 275.778L203.037 202.462L230.963 230.427L185.676 275.778L230.944 321.128L203.037 349.074V349.094V349.094Z" fill="white"/>
<defs>
<linearGradient id="paint0_linear_1_187" x1="512" y1="0" x2="0" y2="512" gradientUnits="userSpaceOnUse">
<stop stop-color="#806EE3"/>
<stop offset="1" stop-color="#1B1D53"/>
</linearGradient>
</defs>
</svg>
